<svg xmlns="http://www.w3.org/2000/svg" viewBox="0 0 25.99 40.54"><defs><style>.cls-1{fill:#404041;}</style></defs><g id="Layer_2" data-name="Layer 2"><g id="Layer_1-2" data-name="Layer 1"><path class="cls-1" d="M0,20.26V4.43A7.2,7.2,0,0,1,.07,3.29,3.73,3.73,0,0,1,3.72,0h.57c5.78,0,11.56,0,17.34,0a5.24,5.24,0,0,1,1.88.32A3.71,3.71,0,0,1,26,3.78c0,.66,0,1.33,0,2Q26,21,26,36.31a4,4,0,0,1-3.77,4.2,4.13,4.13,0,0,1-.5,0l-17.4,0a4.2,4.2,0,0,1-3.18-1.18A3.87,3.87,0,0,1,0,36.88c0-.3,0-.61,0-.92V20.26ZM1.55,6.72c-.15,1-.11,24.69,0,25.18H24.44c.13-1,.1-24.74,0-25.18Zm0,26a3.93,3.93,0,0,0,0,.45c0,1.07,0,2.14,0,3.21a2.54,2.54,0,0,0,2.76,2.75q8.75,0,17.48,0a2.56,2.56,0,0,0,2.82-2.84c0-1,0-2,0-3,0-.19,0-.37-.05-.57ZM1.5,6h23a22.12,22.12,0,0,0,0-2.45,2.34,2.34,0,0,0-2-2,6.31,6.31,0,0,0-1.06-.08H4.52a6.08,6.08,0,0,0-1.13.08A2.13,2.13,0,0,0,1.6,3.19,10,10,0,0,0,1.5,6Z"/><path class="cls-1" d="M13,38.09a2.14,2.14,0,1,1,2.12-2.16A2.2,2.2,0,0,1,13,38.09Z"/><path class="cls-1" d="M23.08,13.94h0c0-.67,0-1.34,0-2A3.68,3.68,0,0,0,20.6,8.5a5.2,5.2,0,0,0-1.88-.32c-5.77,0-5.74,0-11.52,0H6.63A3.74,3.74,0,0,0,3,11.45a7.2,7.2,0,0,0-.05,1.14v1.05l0,.93v-.93h0c0,.31,0,.62,0,.93A3.83,3.83,0,0,0,4.05,17a4.23,4.23,0,0,0,3.17,1.19c5.8,0,5.8,0,11.6,0h.5a4.1,4.1,0,0,0,2.4-1A4,4,0,0,0,23.08,14v-.05Zm-1.46-2.31h0c0,.76,0,1.52,0,2.28a2.56,2.56,0,0,1-2.82,2.84c-5.83,0-5.85,0-11.67,0A2.54,2.54,0,0,1,4.36,14c0-.79,0-1.59,0-2.38h0V12.7h0a5.6,5.6,0,0,1,.16-1.35A2.11,2.11,0,0,1,6.29,9.71a6.14,6.14,0,0,1,1.13-.08h11.1a6.31,6.31,0,0,1,1.06.08,2.34,2.34,0,0,1,2,2,8.53,8.53,0,0,1,0,1h0Z"/></g></g></svg>