<svg width="157" height="33" fill="none" xmlns="http://www.w3.org/2000/svg">
    <path d="M32.527 20.429C30.37 29.075 21.615 34.336 12.968 32.18 4.325 30.025-.936 21.268 1.22 12.623 3.375 3.976 12.131-1.286 20.775.87c8.646 2.155 13.907 10.913 11.752 19.559z" fill="#F7931A"/>
    <path d="M23.986 14.226c.321-2.147-1.314-3.302-3.55-4.072l.726-2.909-1.77-.441-.707 2.832a74.096 74.096 0 0 0-1.418-.334l.71-2.85-1.769-.442-.726 2.908a59.262 59.262 0 0 1-1.13-.266l.002-.009-2.442-.61-.471 1.892s1.314.3 1.286.32c.717.178.847.653.825 1.03l-.826 3.313c.05.013.113.03.184.059l-.187-.046-1.158 4.642c-.088.218-.31.545-.812.42.018.026-1.287-.32-1.287-.32l-.879 2.026 2.305.575c.428.107.848.22 1.262.325l-.733 2.943 1.769.44.726-2.91c.483.13.952.252 1.41.366l-.723 2.897 1.771.442.733-2.937c3.02.571 5.29.34 6.245-2.39.77-2.199-.038-3.467-1.627-4.294 1.157-.267 2.029-1.028 2.261-2.6zm-4.045 5.673c-.548 2.199-4.25 1.01-5.45.712l.972-3.898c1.2.3 5.05.893 4.478 3.186zm.547-5.705c-.499 2-3.58.984-4.58.735l.882-3.535c1 .249 4.218.714 3.698 2.8z" fill="#fff"/>
    <path d="M48.027 10.153c1.31 0 2.44.235 3.39.695a6.825 6.825 0 0 1 2.374 1.88c.624.79 1.088 1.716 1.387 2.777.298 1.063.447 2.207.447 3.43 0 1.88-.344 3.657-1.04 5.331-.695 1.677-1.639 3.132-2.84 4.372a13.353 13.353 0 0 1-4.248 2.938c-1.63.722-3.403 1.083-5.306 1.083-.246 0-.679-.007-1.29-.02a18.86 18.86 0 0 1-2.1-.181 24.665 24.665 0 0 1-2.514-.493 12.595 12.595 0 0 1-2.513-.898l7.067-29.693 6.33-.98L44.64 10.93a9.839 9.839 0 0 1 1.632-.57 7.252 7.252 0 0 1 1.755-.207zm-5.309 17.485c.954 0 1.852-.234 2.695-.695a7.096 7.096 0 0 0 2.189-1.858 9.376 9.376 0 0 0 1.449-2.636c.353-.98.531-2.002.531-3.065 0-1.307-.218-2.326-.653-3.063-.436-.734-1.241-1.103-2.41-1.103-.384 0-.877.073-1.49.204a3.718 3.718 0 0 0-1.656.86l-2.694 11.19c.162.028.306.055.428.081.12.028.253.047.385.061.14.016.3.024.493.024h.733zM62.19 32.088h-6.045l5.105-21.482h6.086L62.19 32.088zm2.941-24.1a3.75 3.75 0 0 1-2.287-.754c-.684-.5-1.023-1.27-1.023-2.308 0-.571.116-1.107.346-1.612.233-.504.538-.939.92-1.308a4.523 4.523 0 0 1 1.327-.879A4.05 4.05 0 0 1 66.03.802c.843 0 1.604.251 2.285.754.679.506 1.02 1.276 1.02 2.309 0 .573-.115 1.11-.347 1.615-.23.504-.536.938-.918 1.307a4.44 4.44 0 0 1-1.326.877 3.982 3.982 0 0 1-1.613.325zM72.633 5.255l6.332-.981-1.555 6.332h6.781l-1.224 4.982h-6.74l-1.796 7.514a8.498 8.498 0 0 0-.285 1.755c-.03.546.04 1.015.203 1.41.162.396.454.701.877.917.422.22 1.026.33 1.818.33.652 0 1.287-.062 1.901-.185.611-.121 1.23-.29 1.856-.51l.451 4.658c-.817.3-1.701.557-2.655.774-.954.22-2.084.326-3.39.326-1.879 0-3.335-.28-4.372-.835-1.036-.559-1.768-1.323-2.206-2.29-.433-.964-.626-2.075-.572-3.327.056-1.254.245-2.573.572-3.962l4.004-16.908zM83.924 23.512c0-1.85.3-3.595.898-5.228a12.864 12.864 0 0 1 2.576-4.292c1.113-1.221 2.47-2.188 4.065-2.898 1.589-.707 3.368-1.063 5.328-1.063 1.227 0 2.323.117 3.287.349.968.234 1.844.538 2.637.918l-2.085 4.74a19.56 19.56 0 0 0-1.695-.592c-.585-.18-1.299-.266-2.144-.266-2.017 0-3.612.695-4.8 2.081-1.182 1.388-1.778 3.255-1.778 5.598 0 1.388.3 2.51.9 3.37.599.858 1.704 1.286 3.308 1.286.792 0 1.556-.083 2.288-.245.737-.163 1.388-.369 1.962-.612l.45 4.86c-.764.296-1.607.564-2.532.799-.927.226-2.03.344-3.31.344-1.689 0-3.118-.248-4.288-.734-1.17-.494-2.137-1.15-2.898-1.982a7.466 7.466 0 0 1-1.655-2.922 11.989 11.989 0 0 1-.514-3.51zM110.778 32.66c-1.443 0-2.696-.22-3.759-.655-1.06-.436-1.938-1.046-2.632-1.838-.696-.788-1.216-1.721-1.573-2.797-.356-1.075-.528-2.266-.528-3.57 0-1.637.263-3.273.794-4.905a13.873 13.873 0 0 1 2.351-4.41 12.541 12.541 0 0 1 3.796-3.21c1.494-.828 3.213-1.245 5.143-1.245 1.417 0 2.663.22 3.741.656 1.073.434 1.956 1.05 2.655 1.838a7.976 7.976 0 0 1 1.569 2.798c.355 1.073.531 2.267.531 3.573 0 1.631-.259 3.267-.774 4.904a14.172 14.172 0 0 1-2.287 4.41c-1.007 1.305-2.266 2.374-3.778 3.204-1.51.83-3.261 1.247-5.249 1.247zm3.022-17.48c-.897 0-1.689.26-2.367.773a6.673 6.673 0 0 0-1.714 1.962 9.702 9.702 0 0 0-1.045 2.594c-.231.94-.345 1.83-.345 2.674 0 1.363.22 2.425.652 3.189.439.76 1.226 1.142 2.37 1.142.899 0 1.688-.258 2.37-.777a6.71 6.71 0 0 0 1.714-1.96 9.725 9.725 0 0 0 1.045-2.594c.228-.938.345-1.832.345-2.675 0-1.36-.219-2.424-.656-3.187-.435-.76-1.226-1.142-2.369-1.142zM129.455 32.088h-6.05l5.105-21.482h6.09l-5.145 21.482zm2.937-24.1a3.741 3.741 0 0 1-2.285-.754c-.681-.5-1.023-1.27-1.023-2.308 0-.571.117-1.107.348-1.612.23-.504.537-.939.92-1.308a4.52 4.52 0 0 1 1.327-.879 4.022 4.022 0 0 1 1.611-.325 3.75 3.75 0 0 1 2.288.754c.681.506 1.024 1.276 1.024 2.309 0 .573-.122 1.11-.35 1.615a4.246 4.246 0 0 1-.917 1.307 4.484 4.484 0 0 1-1.326.877 3.994 3.994 0 0 1-1.617.325zM138.954 11.585c.459-.134.971-.296 1.528-.471a20.223 20.223 0 0 1 1.882-.486c.691-.152 1.47-.275 2.327-.37a26.164 26.164 0 0 1 2.918-.145c3.188 0 5.386.928 6.599 2.78 1.213 1.85 1.422 4.384.636 7.596l-2.781 11.6h-6.085l2.695-11.356c.164-.709.293-1.394.389-2.064.096-.664.09-1.249-.022-1.755a2.1 2.1 0 0 0-.754-1.227c-.398-.312-1.001-.47-1.819-.47-.788 0-1.59.086-2.408.249l-3.963 16.622h-6.087l4.945-20.503z" fill="#4D4D4D"/>
</svg>
