<svg xmlns="http://www.w3.org/2000/svg" viewBox="0 0 38.37 40.81"><defs><style>.cls-1{fill:#404041;}</style></defs><g id="Layer_2" data-name="Layer 2"><g id="Layer_1-2" data-name="Layer 1"><path class="cls-1" d="M26.11,27.17c-.6-.09-1.53-.26-2.47-.37A8.07,8.07,0,0,0,17.78,28c-2,1.43-4,2.87-6.05,4.29a11.73,11.73,0,0,1-1.57,1,3.18,3.18,0,0,1-3.38-.23,1.19,1.19,0,0,0-.72-.18A5,5,0,0,1,1.7,30.75,8.21,8.21,0,0,1,.06,26.92a3.54,3.54,0,0,1,.35-2.35,1.16,1.16,0,0,0,.1-.95A3.21,3.21,0,0,1,1.88,20c2.25-1.55,4.53-3.06,6.8-4.58l.18-.12A6.55,6.55,0,0,0,12,11.3a29.13,29.13,0,0,1,1.08-2.87A9.25,9.25,0,0,1,14.2,6.52a4.47,4.47,0,0,1,4.94-1.7,8.31,8.31,0,0,1,3.3,1.63A22.85,22.85,0,0,1,30.89,20a8.36,8.36,0,0,1-.06,3.82A4.37,4.37,0,0,1,26.11,27.17ZM2.54,24.29,2,25a1.89,1.89,0,0,0-.41,1.33,6.23,6.23,0,0,0,1.83,4,3,3,0,0,0,2.87.89,1.34,1.34,0,0,1,1.17.35,1.71,1.71,0,0,0,2.23.17c.52-.32,1-.69,1.52-1.05,1.81-1.27,3.62-2.54,5.41-3.83a10.18,10.18,0,0,1,7.62-1.59c.79.11,1.59.27,2.39.33a2.22,2.22,0,0,0,2.18-1.22,4.22,4.22,0,0,0,.54-1.6,9.72,9.72,0,0,0-.08-2.41,18.82,18.82,0,0,0-2.76-6.9,20.82,20.82,0,0,0-4.3-5.1,9.08,9.08,0,0,0-3.31-1.91,2.93,2.93,0,0,0-3.56,1.23,12.39,12.39,0,0,0-1.09,2.15c-.38.92-.68,1.87-1,2.8a6.89,6.89,0,0,1-2.73,3.47l-1.07.71Q6.13,19,2.82,21.24a1.72,1.72,0,0,0-.66,2.25C2.27,23.75,2.4,24,2.54,24.29Z"/><path class="cls-1" d="M20.3,38.25l-3.64,2.56-5.94-6.38c1.62-1.24,3.21-2.46,4.85-3.7a6.77,6.77,0,0,1,.93,3,1.47,1.47,0,0,0,.47,1C18.06,35.85,19.14,37,20.3,38.25Zm-5-6.52-3.64,2.78L16.74,40l2.55-1.81c-.18-.21-.31-.37-.46-.52-.84-.9-1.68-1.81-2.53-2.7a1.42,1.42,0,0,1-.45-1.07A4.69,4.69,0,0,0,15.32,31.73Z"/><path class="cls-1" d="M31.6,11.34a.88.88,0,0,1-.81-1.22,1,1,0,0,1,.37-.41c1.07-.65,2.15-1.3,3.25-1.92a.85.85,0,0,1,1.19.27.88.88,0,0,1-.31,1.24c-1,.65-2.11,1.27-3.18,1.88A1.7,1.7,0,0,1,31.6,11.34Z"/><path class="cls-1" d="M35.56,19.61l-1.5.08a2.73,2.73,0,0,1-.57,0,.87.87,0,0,1,0-1.7A3.55,3.55,0,0,1,34,17.9l3.21-.11h.14a.88.88,0,1,1,.09,1.76,7.23,7.23,0,0,1-.93,0c-.33,0-.66,0-1,0Z"/><path class="cls-1" d="M28.62,1a3.67,3.67,0,0,1-.22.5c-.59,1-1.19,2-1.79,3a1.4,1.4,0,0,1-.26.33.87.87,0,0,1-1.42-.85,1.82,1.82,0,0,1,.2-.45c.58-1,1.17-1.95,1.75-2.92A1,1,0,0,1,27.79,0,.88.88,0,0,1,28.62,1Z"/><path class="cls-1" d="M27.8,21.85a10.31,10.31,0,0,1-.28,1.36.94.94,0,0,1-1.17.69,4.75,4.75,0,0,1-1.21-.39,10.14,10.14,0,0,1-2.94-2.22,20.78,20.78,0,0,1-5.28-9,6.59,6.59,0,0,1-.25-3.09c.23-1.07.76-1.44,1.8-1.11a7,7,0,0,1,1.71.85A14.1,14.1,0,0,1,23.43,12a19.74,19.74,0,0,1,4.16,8.33C27.68,20.79,27.72,21.27,27.8,21.85Zm-.67-.09c0-.32-.06-.66-.12-1a14.87,14.87,0,0,0-1.62-4.62,18.4,18.4,0,0,0-5.07-6.34,9.31,9.31,0,0,0-2-1.09c-.64-.27-.92-.06-1,.62,0,.16,0,.33,0,.5a8.83,8.83,0,0,0,.48,3,20.24,20.24,0,0,0,4.71,7.79,17.64,17.64,0,0,0,2.29,1.92,4.31,4.31,0,0,0,1.34.62c.64.2.85,0,1-.64C27.1,22.29,27.11,22,27.13,21.76Z"/><path class="cls-1" d="M14.82,13A24.54,24.54,0,0,0,21.49,23.7c-.25.22-.52.15-.76.16a8.3,8.3,0,0,0-3.19.61,19.41,19.41,0,0,0-2,1.22,1.5,1.5,0,0,1-2.18-.06,10.19,10.19,0,0,1-3.47-5.44,2,2,0,0,1,.88-2.35.5.5,0,0,1,.12-.08,8.18,8.18,0,0,0,3.57-4.12C14.54,13.47,14.64,13.31,14.82,13Zm5.24,10.24a26.07,26.07,0,0,1-5.36-8.54l-.54.87a6.64,6.64,0,0,1-2.27,2.32l-.54.34a1.51,1.51,0,0,0-.76,2.11,10,10,0,0,0,2.73,4.44c.95.88,1.12.92,2.18.16a7.94,7.94,0,0,1,3.68-1.59Z"/></g></g></svg>