<svg xmlns="http://www.w3.org/2000/svg" viewBox="0 0 39.39 32.75"><defs><style>.cls-1{fill:#404041;}</style></defs><g id="Layer_2" data-name="Layer 2"><g id="Layer_1-2" data-name="Layer 1"><path class="cls-1" d="M37.53,18.19a1.47,1.47,0,0,0,0,.25,3.57,3.57,0,0,1-.47,3.2,1.17,1.17,0,0,0-.14,1A4.31,4.31,0,0,1,36,26.51a1.3,1.3,0,0,0-.33,1,4.56,4.56,0,0,1-.89,3.29,5,5,0,0,1-3.56,1.85A16,16,0,0,1,27,32.46C23.51,32,20,31.44,16.56,31a18.91,18.91,0,0,0-2-.07h-1a5.41,5.41,0,0,1-.06-.61q0-6.35,0-12.7c0-.45,0-.9,0-1.35a2,2,0,0,1,1.15-1.68A6,6,0,0,1,16.1,14,3.54,3.54,0,0,0,18,12.92c.95-1,1.88-2.08,2.82-3.13.34-.38.68-.78,1-1.15A7.77,7.77,0,0,0,24,4.22c.13-.78.22-1.55.3-2.33A1.88,1.88,0,0,1,26.32,0a4.94,4.94,0,0,1,4.79,4.73,8.24,8.24,0,0,1-.37,2.88c-.34,1.16-.69,2.32-1.06,3.55a4.24,4.24,0,0,0,.58,0l5.05-.27a3.86,3.86,0,0,1,3,6.55C38.06,17.72,37.8,17.94,37.53,18.19ZM35,21.85l.18-.24c.85-1,1.35-2,.64-3.3-.24-.43-.07-.77.34-1.09a8.72,8.72,0,0,0,1-.81,2.3,2.3,0,0,0-.43-3.58,2.8,2.8,0,0,0-1.64-.34l-6.69.36h-.79c.06-.27.09-.45.14-.63.43-1.46.87-2.91,1.3-4.37a16.85,16.85,0,0,0,.44-1.73,4.08,4.08,0,0,0-.6-3.2,3.07,3.07,0,0,0-2.32-1.35c-.64-.05-.68,0-.77.62s-.16,1.32-.25,2a9.47,9.47,0,0,1-2.1,5c-1.32,1.5-2.67,3-4,4.46a5.9,5.9,0,0,1-3.14,2c-1.14.28-1.17.36-1.18,1.5,0,3.95,0,7.89,0,11.84,0,.11,0,.22,0,.33.74.08,1.45.13,2.15.23,1,.14,1.91.34,2.88.48,2.7.38,5.41.74,8.11,1.1A9.42,9.42,0,0,0,31.78,31a2.87,2.87,0,0,0,2.37-2.89,7.6,7.6,0,0,0,0-1.07,1.35,1.35,0,0,1,.46-1.26,2.86,2.86,0,0,0,.69-3.33Z"/><path class="cls-1" d="M12.11,31.05a36.91,36.91,0,0,1-5.93.72,11.88,11.88,0,0,1-3.45-.48A3.06,3.06,0,0,1,.61,29.35a9.55,9.55,0,0,1-.57-3,38.56,38.56,0,0,1,.62-8.51,20.92,20.92,0,0,1,.52-2.5A3.05,3.05,0,0,1,3.41,13a4.86,4.86,0,0,1,1.9,0c1.31.23,2.6.56,3.88.9a3.89,3.89,0,0,1,3,3.75c0,4.33,0,8.65,0,13C12.15,30.72,12.12,30.85,12.11,31.05Zm-1.56-1.29c0-.19,0-.29,0-.38,0-3.89,0-7.79,0-11.68a2.45,2.45,0,0,0-1.94-2.41c-1.09-.27-2.18-.49-3.26-.75-1.71-.41-2.5,0-2.88,1.86a39.2,39.2,0,0,0-.91,9.9c0,.61.16,1.22.26,1.83a2.1,2.1,0,0,0,2,1.84,16,16,0,0,0,4.68.09C9.17,30,9.84,29.87,10.55,29.76Z"/><path class="cls-1" d="M16.38,27.76V19.07a3.33,3.33,0,0,1,.07-.7.33.33,0,0,1,.28-.16.31.31,0,0,1,.24.2,2.68,2.68,0,0,1,.05.64V27.2c1.2.2,2.31.43,3.43.59,2.63.39,5.27.77,7.9,1.12a10.6,10.6,0,0,0,1.78.06c.63,0,1.24-.12,1.48-.86A.42.42,0,0,1,32,28a.45.45,0,0,1,.17.39,1.14,1.14,0,0,1-.89,1,6.5,6.5,0,0,1-2.17.27c-3.67-.49-7.33-1.06-11-1.61C17.58,28,17,27.86,16.38,27.76Z"/></g></g></svg>