<svg xmlns="http://www.w3.org/2000/svg" viewBox="0 0 40.14 34.46"><defs><style>.cls-1{fill:#404041;}</style></defs><g id="Layer_2" data-name="Layer 2"><g id="Layer_1-2" data-name="Layer 1"><path class="cls-1" d="M20,0H35.76a6.13,6.13,0,0,1,1.48.13,3.77,3.77,0,0,1,2.85,3.44c0,.26,0,.52,0,.78,0,7.33,0,14.65,0,22a4.15,4.15,0,0,1-4.47,4.45c-10.42-.07-20.83,0-31.25,0a6.85,6.85,0,0,1-1.2-.07A3.75,3.75,0,0,1,0,27.1c0-.21,0-.43,0-.64Q0,15.36,0,4.27A4.33,4.33,0,0,1,.62,1.76,3.73,3.73,0,0,1,3.51,0c.33,0,.67,0,1,0ZM38.5,22.3a5,5,0,0,0,0-.51q0-8.92,0-17.83a2.26,2.26,0,0,0-2.14-2.39c-.24,0-.48,0-.71,0H4.45a5.56,5.56,0,0,0-.71,0A2.25,2.25,0,0,0,1.58,3.94c0,6,0,11.94,0,17.9a2.32,2.32,0,0,0,.07.46ZM1.59,23.94c0,1.13-.05,2.17,0,3.21A2,2,0,0,0,3,29a3.8,3.8,0,0,0,1.26.16h32a2.26,2.26,0,0,0,2.28-2.33c0-.8,0-1.61,0-2.42,0-.16,0-.32-.06-.49Z"/><path class="cls-1" d="M26.7,33v1.42H13.4v-1.4C14,32.91,26,32.89,26.7,33Z"/><path class="cls-1" d="M7.91,19.64l2.4-3.56c1.91,0,2.7-.49,3-1.68a2.31,2.31,0,0,0-.91-2.51c-.94-.65-2-.53-3.15.41L5.81,9.84c1.1-2,5-3.93,8.56-1.95A6.7,6.7,0,1,1,7.91,19.64Zm.93-.26a6,6,0,0,0,7.71-2.83,6.14,6.14,0,0,0-2.43-8.09c-2.38-1.38-6-.74-7.39,1.26l2.52,1.77.56-.32A2.93,2.93,0,1,1,12,16.58c-.31.09-.66.08-1,.16a.91.91,0,0,0-.53.25C9.91,17.76,9.4,18.55,8.84,19.38Z"/><path class="cls-1" d="M24.88,5h4v15h-4Zm.63.63V19.46h2.73V5.67Z"/><path class="cls-1" d="M34.32,20.1h-4V7.52h4Zm-3.41-12c0,3.8,0,7.56,0,11.32h2.78V8.12Z"/><path class="cls-1" d="M19.47,12h4a74.35,74.35,0,0,1,.08,8,18.08,18.08,0,0,1-4,0Zm3.44,7.47v-6.8H20.14v6.8Z"/><path class="cls-1" d="M9.7,15.71,7.58,18.85a5.65,5.65,0,0,1-1.75-8.12l3.05,2.14A2.11,2.11,0,0,0,9.7,15.71ZM6,11.6a5,5,0,0,0,1.43,6.33l1.42-2.09a2.7,2.7,0,0,1-.74-2.75Z"/><path class="cls-1" d="M19.85,28.21a1.41,1.41,0,0,1-1.33-1.54A1.42,1.42,0,0,1,20,25.29a1.46,1.46,0,0,1-.17,2.92Z"/></g></g></svg>