<svg xmlns="http://www.w3.org/2000/svg" viewBox="0 0 40.07 39.66"><defs><style>.cls-1{fill:#404041;}</style></defs><g id="Layer_2" data-name="Layer 2"><g id="Layer_1-2" data-name="Layer 1"><path class="cls-1" d="M40.06,19.79c-.14.81-.32,1.84-.51,2.86-.89,4.84-1.79,9.67-2.67,14.51a2.73,2.73,0,0,1-2.1,2.42,3.35,3.35,0,0,1-1.34,0Q20.24,37.17,7,34.7c-1.57-.29-3.13-.6-4.7-.86A2.74,2.74,0,0,1,.05,30.62L1.25,24q1-5.28,2-10.57a2.88,2.88,0,0,1,1-1.85A2.81,2.81,0,0,1,6.59,11L22.07,13.9l15.06,2.8a9.18,9.18,0,0,1,1,.23A2.72,2.72,0,0,1,40.06,19.79Zm-1.61-.12a1.1,1.1,0,0,0-1-1.26l-4.55-.85L16.24,14.47,6.29,12.63a1.13,1.13,0,0,0-1.46,1,2.33,2.33,0,0,0,0,.28c-.31,1.68-.62,3.36-.94,5q-1.08,5.9-2.17,11.77c-.17.95.14,1.4,1.07,1.57l8.34,1.55,15.84,2.92L33.79,38a1.08,1.08,0,0,0,1.45-1l.06-.28q1.34-7.25,2.68-14.5Z"/><path class="cls-1" d="M38.64,15,37,14.71v-.82q0-5.25,0-10.48c0-.22,0-.43,0-.65a1,1,0,0,0-.93-1,4.56,4.56,0,0,0-.64,0L4.66,1.59c-1.14,0-1.8.16-1.76,1.74.05,2.09,0,4.18,0,6.27a1.39,1.39,0,0,1-.36,1A12.38,12.38,0,0,0,1.62,12l-.32.54c0-.33-.06-.48-.06-.63q0-4.46,0-8.92a4.69,4.69,0,0,1,.11-1A2.66,2.66,0,0,1,3.67,0a6.18,6.18,0,0,1,.86,0L35.62.13a4.64,4.64,0,0,1,.92.06,2.69,2.69,0,0,1,2.12,2.39,8.24,8.24,0,0,1,0,.86q0,5.39,0,10.77Z"/><path class="cls-1" d="M19.78,7.07l.06-1.16h.62V7.1l.76.23a2.2,2.2,0,0,1,1.61,2.28H21.46c-.05-.15-.1-.33-.17-.5A1.2,1.2,0,0,0,20,8.27a1.06,1.06,0,0,0-1.1.83,1.2,1.2,0,0,0,.49,1.5c.53.32,1.09.57,1.77.91a2.25,2.25,0,0,1-.41,0c-.82-.14-1.63-.32-2.45-.43a1,1,0,0,1-.87-.81,2.29,2.29,0,0,1,1.35-2.86C19.06,7.29,19.4,7.2,19.78,7.07Z"/><path class="cls-1" d="M33.19,8.35c-.51-.14-.95-.24-1.37-.39a3.76,3.76,0,0,1-2.33-3.31c0-.25.09-.46.34-.46s.26.21.35.35a.78.78,0,0,1,.08.35,3,3,0,0,0,2.82,2.67l.79.12v6l-.68-.08Z"/><path class="cls-1" d="M6.07,8.6V7.66l.77-.11A3.05,3.05,0,0,0,9.65,4.88c.06-.28,0-.66.45-.69.27,0,.35.26.24.84A3.6,3.6,0,0,1,7.52,8.14c-.3.08-.65.06-.87.38C6.58,8.62,6.31,8.57,6.07,8.6Z"/><path class="cls-1" d="M20.69,20.77l.26-1.1.61.08L21.39,21l.67.33a2.19,2.19,0,0,1,1.15,2.54l-1.31-.22-.1-.54A1.23,1.23,0,0,0,20.68,22a1.11,1.11,0,0,0-1.29.66,1.25,1.25,0,0,0,.31,1.61c.24.2.5.37.74.56.48.35,1,.68,1.43,1.06a2.1,2.1,0,0,1,.64,2.33,2.07,2.07,0,0,1-1.7,1.62c-.37.07-.74.11-1.17.17l-.23,1.05L18.79,31l.13-1.09c-.45-.27-.91-.51-1.32-.81a2,2,0,0,1-.86-2,1.34,1.34,0,0,1,.08-.19l1.29.22a3.12,3.12,0,0,1,.07.31,1.55,1.55,0,0,0,1.76,1.45,1.18,1.18,0,0,0,1.1-.88,1.22,1.22,0,0,0-.39-1.41c-.48-.38-1-.73-1.49-1.1a6.68,6.68,0,0,1-.72-.57,2.27,2.27,0,0,1,1-3.85C19.83,20.88,20.23,20.85,20.69,20.77Z"/><path class="cls-1" d="M7.61,19.72,6.42,26.19c.36.18.66.32.94.49a3.88,3.88,0,0,1,2,3.62.64.64,0,0,1,0,.34c-.06.11-.19.25-.29.25a.43.43,0,0,1-.32-.22,1.3,1.3,0,0,1,0-.49A3.25,3.25,0,0,0,6.49,27l-.39-.15-.49-.19C6.05,24.12,6.55,21.55,7,19h.83A3.05,3.05,0,0,0,11.1,16.8l.06-.14c.09-.25.2-.53.54-.39s.19.43.11.68a3.78,3.78,0,0,1-3.55,2.72H8Z"/><path class="cls-1" d="M34.45,23.9c-.46,2.61-.91,5.15-1.38,7.77h-.72A3.26,3.26,0,0,0,29,34c0,.06,0,.16-.07.2s-.3.27-.44.25-.28-.28-.22-.51a3.89,3.89,0,0,1,1.66-2.24A4.32,4.32,0,0,1,31.75,31l.73-.07c.38-2.16.77-4.32,1.16-6.51l-.8-.38a3.6,3.6,0,0,1-2.18-3.54,1,1,0,0,1,0-.42,1.83,1.83,0,0,1,.39-.34c.09.13.23.23.28.37a1.66,1.66,0,0,1,0,.5,2.94,2.94,0,0,0,2.07,2.93Z"/></g></g></svg>