<svg width="399" height="376" viewBox="0 0 399 376" fill="none" xmlns="http://www.w3.org/2000/svg">
<path fill-rule="evenodd" clip-rule="evenodd" d="M289.397 1.45478C316.709 5.80978 339.066 16.7628 358.737 35.4248C384.48 59.8478 398.209 92.2818 398.127 128.481C398.05 162.936 385.607 193.46 361.722 217.793C342.607 237.266 316.087 250.835 289.205 254.895C278.762 256.472 259.685 256.226 248.823 254.373C227.337 250.709 206.458 241.379 190.079 228.123L185.761 224.629L175.585 234.806C166.679 243.711 165.562 245.201 166.642 246.732C170.844 252.688 172.249 256.729 172.293 262.981L172.295 263.249C172.31 265.248 172.321 266.905 172.084 268.525C170.935 276.358 163.956 283.337 123.23 324.06L122.104 325.185L122.069 325.22C79.6031 367.684 72.1589 375.128 64.0846 375.89C62.3682 376.051 60.6234 375.911 58.5076 375.741L58.4994 375.741C55.1114 375.469 50.5514 374.32 48.3684 373.188C44.1814 371.017 28.5234 355.558 25.4044 350.516C23.0534 346.716 22.1914 334.706 23.8864 329.368C25.6904 323.687 117.069 231.879 124.397 228.385C132.681 224.435 142.482 225.348 149.75 230.749L153.103 233.24L163.415 222.963L173.727 212.686L168.853 206.327C123.847 147.609 137.768 62.3818 199.008 21.7018C225.562 4.06178 258.909 -3.40722 289.397 1.45478ZM252.981 18.5158C217.421 24.2828 186.561 47.1888 170.847 79.4808C152.259 117.676 156.402 160.692 181.967 194.945C210.483 233.151 261.317 248.657 306.609 232.964C347.32 218.857 376.79 181.335 380.753 138.56C387.42 66.6048 323.979 7.00178 252.981 18.5158ZM74.6484 299.738C46.1563 328.132 38.6259 335.637 39.9486 340.928C40.4238 342.829 42.0416 344.445 44.2406 346.64C44.966 347.365 45.7546 348.152 46.5864 349.034C53.5854 356.454 57.2664 358.981 61.0714 358.981C62.7354 358.981 75.3904 346.962 108.19 314.231C132.855 289.618 153.715 268.197 154.545 266.628C156.733 262.493 155.155 259.552 145.929 250.574C139.376 244.197 137.593 242.981 134.795 242.981C131.735 242.981 127.729 246.712 85.6804 288.733C81.6953 292.715 78.0247 296.373 74.6484 299.738ZM227.055 199.788V55.3437H251.195V141.615L294.528 95.3133H323.615L282.062 137.855L325 199.788H296.903L266.035 154.476L251.195 169.91V199.788H227.055ZM4.69878 52.1358C-0.411225 54.9308 -1.54123 61.9978 2.51277 65.8068L4.82777 67.9808H68.0588H131.29L133.744 65.5258C138.125 61.1458 136.619 54.2318 130.802 52.0198C126.911 50.5408 7.41478 50.6498 4.69878 52.1358ZM4.59877 86.4088C-0.476231 88.6178 -1.61423 95.9298 2.51277 99.8068C4.61877 101.784 5.88978 101.981 16.5788 101.981C23.0418 101.981 29.1538 101.54 30.1598 101.002C35.3848 98.2058 34.3778 88.7888 28.5958 86.3728C24.2788 84.5698 8.77077 84.5928 4.59877 86.4088ZM53.5128 99.8068C48.9418 95.5118 51.4018 87.2198 57.6988 85.6968C58.7988 85.4308 73.1008 85.1608 89.4808 85.0968C122.736 84.9668 125.078 85.3278 127.012 90.8728C128.313 94.6058 126.929 99.5198 124.16 101.002C123.072 101.584 108.856 101.981 89.0788 101.981C56.3158 101.981 55.7938 101.949 53.5128 99.8068ZM2.37279 122.295C-0.439214 125.289 -0.556224 131.226 2.14278 133.925C3.21278 134.995 5.57478 136.14 7.39278 136.47C9.21078 136.801 33.9508 136.939 62.3688 136.776L114.039 136.481L116.619 134.057C119.819 131.05 120.029 126.306 117.126 122.616L115.054 119.981H59.8008H4.54777L2.37279 122.295ZM2.10878 168.12C-0.506221 164.888 -0.380214 159.226 2.37279 156.295L4.54777 153.981H33.6848C61.5718 153.981 62.9148 154.068 64.9978 156.009C67.9188 158.73 68.6638 162.239 67.0388 165.628C64.5528 170.813 63.1408 171.021 32.3588 170.74L4.01979 170.481L2.10878 168.12ZM88.2238 155.956C83.8718 160.308 84.9098 167.79 90.1698 169.969C92.0038 170.729 98.1748 171.017 108.059 170.805C122.104 170.503 123.303 170.327 125.374 168.253C128.419 165.205 128.35 159.835 125.225 156.508C122.873 154.005 122.693 153.981 106.525 153.981C91.6018 153.981 90.0288 154.151 88.2238 155.956ZM0.198775 196.481C0.198775 192.967 0.707785 191.726 2.83378 190.054C5.14679 188.234 6.85078 187.981 16.7778 187.981C27.1148 187.981 28.3158 188.177 30.7428 190.265C34.4808 193.48 34.4808 199.482 30.7428 202.697C28.3158 204.785 27.1148 204.981 16.7778 204.981C6.85078 204.981 5.14679 204.728 2.83378 202.908C0.707785 201.236 0.198775 199.995 0.198775 196.481ZM55.6988 189.136C50.5278 191.964 49.5428 198.416 53.6538 202.526L56.1078 204.981H93.6988H131.29L133.744 202.526C136.16 200.111 136.913 196.005 135.578 192.526C133.952 188.288 131.076 187.979 93.4988 188.011C69.5238 188.032 57.0378 188.403 55.6988 189.136Z" fill="#3F3F40"/>
</svg>
