<svg width="138" height="37" fill="none" xmlns="http://www.w3.org/2000/svg">
    <path d="M106.676 9.724h-7.447c-.438 0-.876.439-1.095.877l-3.067 19.276c0 .438.219.657.657.657h3.943c.438 0 .657-.219.657-.657l.876-5.476c0-.438.438-.877 1.095-.877h2.41c5.038 0 7.886-2.409 8.543-7.228.438-1.971 0-3.724-.876-4.82-1.315-1.094-3.286-1.752-5.696-1.752zm.877 7.23c-.438 2.628-2.41 2.628-4.381 2.628h-1.315l.877-5.039c0-.218.219-.438.657-.438h.438c1.314 0 2.628 0 3.286.877.438.219.438.876.438 1.971z" fill="#139AD6"/>
    <path d="M53.01 9.724h-7.448c-.438 0-.876.439-1.095.877L41.4 29.877c0 .438.219.657.657.657h3.505c.438 0 .876-.438 1.095-.876l.876-5.257c0-.438.438-.877 1.096-.877h2.409c5.038 0 7.886-2.409 8.543-7.228.438-1.971 0-3.724-.876-4.82-1.315-1.094-3.067-1.752-5.696-1.752zm.876 7.23c-.439 2.628-2.41 2.628-4.381 2.628h-1.096l.877-5.039c0-.218.219-.438.657-.438h.438c1.314 0 2.628 0 3.286.877.219.219.438.876.219 1.971zM75.571 16.734h-3.504c-.22 0-.658.22-.658.438l-.219 1.095-.219-.438c-.876-1.095-2.41-1.533-4.162-1.533-3.942 0-7.447 3.067-8.104 7.229-.438 2.19.219 4.162 1.314 5.476s2.629 1.752 4.6 1.752c3.286 0 5.038-1.971 5.038-1.971l-.22 1.095c0 .438.22.657.658.657h3.286c.438 0 .876-.438 1.095-.876l1.972-12.267c-.22-.219-.658-.657-.877-.657zm-5.038 7.01c-.438 1.971-1.971 3.504-4.162 3.504-1.095 0-1.971-.438-2.41-.876-.437-.657-.656-1.533-.656-2.628.219-1.972 1.971-3.505 3.943-3.505 1.095 0 1.752.438 2.409.876.657.657.876 1.752.876 2.629z" fill="#263B80"/>
    <path d="M129.019 16.734h-3.505c-.219 0-.657.22-.657.438l-.219 1.095-.219-.438c-.876-1.095-2.409-1.533-4.162-1.533-3.943 0-7.447 3.067-8.105 7.229-.438 2.19.219 4.162 1.315 5.476 1.095 1.314 2.628 1.752 4.6 1.752 3.285 0 5.038-1.971 5.038-1.971l-.219 1.095c0 .438.219.657.657.657h3.286c.438 0 .876-.438 1.095-.876l1.971-12.267c-.219-.219-.438-.657-.876-.657zm-5.038 7.01c-.438 1.971-1.971 3.504-4.162 3.504-1.095 0-1.971-.438-2.41-.876-.438-.657-.657-1.533-.657-2.628.219-1.972 1.972-3.505 3.943-3.505 1.095 0 1.753.438 2.41.876.876.657 1.095 1.752.876 2.629z" fill="#139AD6"/>
    <path d="M94.628 16.734h-3.723c-.439 0-.658.22-.877.438L85.21 24.62l-2.19-7.01c-.22-.438-.438-.657-1.095-.657h-3.505c-.438 0-.657.438-.657.876l3.943 11.61-3.724 5.257c-.22.438 0 1.095.438 1.095h3.505c.438 0 .657-.219.876-.438l12.047-17.305c.658-.657.22-1.314-.219-1.314z" fill="#263B80"/>
    <path d="m133.181 10.382-3.067 19.714c0 .438.219.657.657.657h3.067c.438 0 .876-.438 1.095-.876L138 10.6c0-.438-.219-.657-.657-.657h-3.505c-.219-.22-.438 0-.657.438z" fill="#139AD6"/>
    <path d="M25.19 3.153C23.657 1.401 20.81.525 16.867.525H5.914c-.657 0-1.314.657-1.533 1.314L0 30.534c0 .657.438 1.095.876 1.095h6.79L9.42 20.896v.438c.22-.657.876-1.314 1.533-1.314h3.286c6.352 0 11.172-2.629 12.705-9.857v-.657c-.22 0-.22 0 0 0 .219-2.848-.22-4.6-1.753-6.353z" fill="#263B80"/>
    <path d="M26.724 9.505v.658c-1.533 7.447-6.352 9.857-12.705 9.857h-3.285c-.658 0-1.315.657-1.534 1.314L7.01 34.696c0 .438.219.876.876.876h5.695c.657 0 1.315-.438 1.315-1.095v-.22l1.095-6.79v-.438c0-.657.657-1.095 1.314-1.095h.876c5.476 0 9.857-2.19 10.953-8.762.438-2.628.219-5.038-1.096-6.571-.219-.438-.657-.876-1.314-1.096z" fill="#139AD6"/>
    <path d="M25.19 8.848c-.219 0-.438-.219-.657-.219-.219 0-.438 0-.657-.219-.876-.219-1.752-.219-2.848-.219h-8.542c-.22 0-.439 0-.658.22a1.205 1.205 0 0 0-.657 1.095L9.42 20.896v.438c.219-.657.876-1.314 1.533-1.314h3.286c6.352 0 11.171-2.629 12.705-9.857 0-.22 0-.438.219-.657-.438-.22-.657-.439-1.095-.439-.658-.219-.658-.219-.877-.219z" fill="#232C65"/>
</svg>
