<svg xmlns="http://www.w3.org/2000/svg" viewBox="0 0 40.31 40.21"><defs><style>.cls-1{fill:#404041;}</style></defs><g id="Layer_2" data-name="Layer 2"><g id="Layer_1-2" data-name="Layer 1"><path class="cls-1" d="M21,0A20,20,0,0,1,36,32.44a4.25,4.25,0,0,1-.43-.31q-7.08-6-14.16-12.07a1.15,1.15,0,0,1-.44-1Q21,9.85,21,.62C21,.42,21,.21,21,0Zm1.7,1.91c0,.18,0,.37,0,.56q0,7.92,0,15.83a1.18,1.18,0,0,0,.47,1q6,5.11,12,10.26a5.67,5.67,0,0,0,.57.42c3.5-6.19,3.86-12.41.57-18.7A17.7,17.7,0,0,0,22.71,1.91Z"/><path class="cls-1" d="M3.6,31.47A20,20,0,0,1,19.3,0c0,.23,0,.46,0,.69q0,9.16,0,18.32a1.07,1.07,0,0,1-.44,1q-7.53,5.64-15,11.32A2.91,2.91,0,0,1,3.6,31.47ZM4,29c.21-.13.36-.21.49-.31q6.35-4.78,12.69-9.56a1.05,1.05,0,0,0,.43-1c0-5.18,0-10.36,0-15.54v-.7c-3.82.18-10,3-13.3,8.74C.87,16.69.88,22.8,4,29Z"/><path class="cls-1" d="M20.16,21.17l14.7,12.55a20,20,0,0,1-30.18-.8C5,32.46,18.57,22.18,20.16,21.17Zm-.11,2.19L7.18,33.05C14.09,40.32,26,40,32.27,33.78Z"/><path class="cls-1" d="M25.12,19.89l-.53-.46L35.39,12l.33.61Z"/><path class="cls-1" d="M32.37,7.9l.35.47-8.91,6.15c-.15-.42-.17-.71.17-.94l8.21-5.64Z"/><path class="cls-1" d="M29.17,23.36l-.52-.45L37.17,17c.2.38.28.64-.1.9Z"/><path class="cls-1" d="M33.26,26.81l-.55-.42,4.55-3.15c0,.44,0,.78-.29,1C35.75,25.11,34.51,26,33.26,26.81Z"/></g></g></svg>