<svg xmlns="http://www.w3.org/2000/svg" viewBox="0 0 39.46 39.45"><defs><style>.cls-1{fill:#404041;}</style></defs><g id="Layer_2" data-name="Layer 2"><g id="Layer_1-2" data-name="Layer 1"><path class="cls-1" d="M26.27,19.86a6.49,6.49,0,1,1-6.65-6.54A6.5,6.5,0,0,1,26.27,19.86Zm-6.43-5a4.92,4.92,0,1,0,4.85,5A4.87,4.87,0,0,0,19.84,14.89Z"/><path class="cls-1" d="M28.68,29a3.49,3.49,0,0,1,4.86.53,3.41,3.41,0,0,1-4.73,4.83,3.48,3.48,0,0,1-.62-4.86L24.3,25.76l.5-.59Zm2.16,4.45a1.81,1.81,0,1,0-1.8-1.8A1.76,1.76,0,0,0,30.84,33.49Z"/><path class="cls-1" d="M29.5,11.23l-3.86,3.85-.45-.43L29,10.79a3.6,3.6,0,0,1-.59-3.24,3.4,3.4,0,1,1,5.84,3.24A3.51,3.51,0,0,1,29.5,11.23Zm2.25-4.48a1.83,1.83,0,1,0-.12,3.66,1.83,1.83,0,1,0,.12-3.66Z"/><path class="cls-1" d="M11.27,10l3.86,3.86-.42.5-3.9-3.88c-2.1,1.11-3.82.86-4.95-.66A3.4,3.4,0,0,1,10.63,5C12.14,6.16,12.37,7.92,11.27,10ZM6.76,7.76A1.83,1.83,0,1,0,8.63,5.92,1.85,1.85,0,0,0,6.76,7.76Z"/><path class="cls-1" d="M13.85,24.36l.47.41L10.41,28.6c1.14,2.19.89,3.93-.66,5a3.4,3.4,0,0,1-4.47-.45,3.44,3.44,0,0,1-.18-4.44A3.47,3.47,0,0,1,10,28.21ZM5.94,30.87a1.82,1.82,0,0,0,1.8,1.83A1.85,1.85,0,0,0,9.6,30.85a1.83,1.83,0,1,0-3.66,0Z"/><path class="cls-1" d="M19.48,6.88c-2.37-.85-3.39-2.24-3-4.09a3.41,3.41,0,0,1,6.75.3c.2,1.74-.93,3.14-3.08,3.75v5.34c-.59.12-.62.12-.62-.34,0-1.4,0-2.8,0-4.2Zm.27-1.65a1.86,1.86,0,0,0,1.9-1.82,1.92,1.92,0,0,0-1.8-1.87A1.88,1.88,0,0,0,18,3.38,1.85,1.85,0,0,0,19.75,5.23Z"/><path class="cls-1" d="M20.08,32.57c2.34.79,3.39,2.19,3.08,4a3.39,3.39,0,0,1-3.32,2.88,3.43,3.43,0,0,1-3.41-2.86c-.31-1.83.74-3.25,3-4V27.21h.61Zm-.34,5.32a1.89,1.89,0,0,0,1.91-1.82,1.93,1.93,0,0,0-1.81-1.87A1.86,1.86,0,0,0,18,36,1.83,1.83,0,0,0,19.74,37.89Z"/><path class="cls-1" d="M27.22,20.11V19.5h5.41a3.61,3.61,0,0,1,1.95-2.75A3.39,3.39,0,0,1,39.46,20a3.44,3.44,0,0,1-2.94,3.2c-1.79.25-3.11-.76-3.93-3.06ZM36,21.63a1.85,1.85,0,0,0,1.87-1.77,1.85,1.85,0,1,0-3.69-.12A1.85,1.85,0,0,0,36,21.63Z"/><path class="cls-1" d="M6.82,20.07a3.63,3.63,0,0,1-1.73,2.68A3.39,3.39,0,1,1,2.64,16.5a3.35,3.35,0,0,1,2.77.57A3.67,3.67,0,0,1,6.82,19.5h5.42l0,.57ZM3.41,21.63a1.87,1.87,0,0,0,1.84-1.81A1.91,1.91,0,0,0,3.31,18a1.87,1.87,0,0,0-1.75,1.89A1.84,1.84,0,0,0,3.41,21.63Z"/></g></g></svg>