<?xml version="1.0" encoding="utf-8"?>
<!-- Generator: Adobe Illustrator 22.1.0, SVG Export Plug-In . SVG Version: 6.00 Build 0)  -->
<svg version="1.1" id="Layer_1" xmlns="http://www.w3.org/2000/svg" xmlns:xlink="http://www.w3.org/1999/xlink" x="0px" y="0px"
	 viewBox="0 0 100 100" style="enable-background:new 0 0 100 100;" xml:space="preserve">
<g>
	<path d="M76.4,68.4c1.7,0,3.1-1.4,3.1-3.1V22.8c0-1.7-1.4-3.1-3.1-3.1H66.3c-1.7,0-3.1,1.4-3.1,3.1v42.6c0,1.7,1.4,3.1,3.1,3.1
		L76.4,68.4L76.4,68.4z"/>
	<path d="M55,68.4c1.7,0,3.1-1.4,3.1-3.1V39.9c0-1.7-1.4-3.1-3.1-3.1H45c-1.7,0-3.1,1.4-3.1,3.1v25.5c0,1.7,1.4,3.1,3.1,3.1
		C45,68.4,55,68.4,55,68.4z"/>
	<path d="M23.6,68.4h10.1c1.7,0,3.1-1.4,3.1-3.1v-10c0-1.7-1.4-3.1-3.1-3.1H23.6c-1.7,0-3.1,1.4-3.1,3.1v10
		C20.6,67.1,21.9,68.4,23.6,68.4z"/>
	<path d="M20.1,80.2h59.8c1.2,0,2.1-0.9,2.1-2.1v-2.8c0-1.2-0.9-2.1-2.1-2.1H20.1c-1.1,0-2.1,0.9-2.1,2.1v2.8
		C18,79.3,18.9,80.2,20.1,80.2z"/>
</g>
</svg>
