<svg xmlns="http://www.w3.org/2000/svg" viewBox="0 0 30.45 39.95"><defs><style>.cls-1{fill:#404041;}</style></defs><g id="Layer_2" data-name="Layer 2"><g id="Layer_1-2" data-name="Layer 1"><path class="cls-1" d="M30.45,15.05a15,15,0,0,1-2.84,9q-3.73,5.31-7.49,10.59L17.4,38.43l-.21.3c-1.17,1.63-2.77,1.63-4,0-1.32-1.84-2.61-3.69-3.91-5.53L3,24.22A15.67,15.67,0,0,1,.26,18.16a14.91,14.91,0,0,1,.93-8.53A14.7,14.7,0,0,1,8.87,1.4,14.44,14.44,0,0,1,17.21.16a14.86,14.86,0,0,1,12,9.14A15,15,0,0,1,30.45,15.05Zm-15.22,23c.27-.34.46-.58.64-.83L22,28.64l4-5.58a12.89,12.89,0,0,0,2.55-6.85A13.3,13.3,0,0,0,9.22,3.38,13.09,13.09,0,0,0,2.74,11a13,13,0,0,0-.64,6.46A13.31,13.31,0,0,0,4.5,23q5.1,7.22,10.23,14.41C14.87,37.64,15,37.82,15.23,38.08Z"/><path class="cls-1" d="M6.82,16.52c-.52,0-1,0-1.56,0s-.92-.29-.9-.76.32-.71.94-.72H8.49a2.17,2.17,0,0,1,.36,0,.77.77,0,0,1,.64.74.71.71,0,0,1-.68.7c-.66,0-1.33,0-2,0Z"/><path class="cls-1" d="M23.58,15h1.49a2.1,2.1,0,0,1,.56.07.66.66,0,0,1,.47.71.65.65,0,0,1-.54.66,2,2,0,0,1-.49,0c-1,0-2,0-3.05,0h-.36a.75.75,0,0,1-.69-.69.77.77,0,0,1,.69-.77,3.09,3.09,0,0,1,.43,0Z"/><path class="cls-1" d="M16.1,7.59c0,.57,0,1.14,0,1.7a.77.77,0,0,1-.76.84.78.78,0,0,1-.71-.82c0-1.16,0-2.32,0-3.47,0-.56.28-.85.74-.83s.69.29.7.81S16.1,7,16.1,7.59Z"/><path class="cls-1" d="M14.64,23.65c0-.54,0-1.09,0-1.63s.31-.92.74-.91.71.3.71.87c0,1.13,0,2.27,0,3.4,0,.54-.3.86-.74.86s-.69-.33-.71-.89S14.64,24.22,14.64,23.65Z"/><path class="cls-1" d="M13.75,6.05c.13.28,0,.44-.26.51s-.74.17-1.1.3A9.05,9.05,0,0,0,6.2,13.64a3.06,3.06,0,0,1-.1.41c-.09.22-.26.25-.46.13C5.76,10.39,9.8,6.21,13.75,6.05Z"/><path class="cls-1" d="M5.72,17.41c.29-.11.43,0,.51.29.14.45.26.91.44,1.35a9.09,9.09,0,0,0,6.48,5.58l.42.09c.29.07.26.27.18.49C9.94,25,6,21.09,5.72,17.41Z"/><path class="cls-1" d="M24.79,17.42A9.47,9.47,0,0,1,17,25.18c-.17-.26-.13-.43.19-.52s.82-.22,1.22-.38a9.21,9.21,0,0,0,5.74-6.37C24.26,17.63,24.25,17.25,24.79,17.42Z"/><path class="cls-1" d="M24.81,14.2c-.38.14-.46-.09-.52-.33-.13-.46-.21-.93-.38-1.37a9.24,9.24,0,0,0-6.48-5.87c-.3-.08-.59-.1-.45-.52C20.27,6,24.83,10.65,24.81,14.2Z"/></g></g></svg>