<svg width="184" height="58" fill="none" xmlns="http://www.w3.org/2000/svg">
    <path d="M62.156 15.744c-1.288-.488-3.304-1.004-5.804-1.004-6.4 0-10.92 3.224-10.952 7.852-.04 3.4 3.212 5.316 5.672 6.452 2.524 1.168 3.368 1.904 3.36 2.948-.016 1.588-2.016 2.308-3.876 2.308-2.556 0-3.952-.356-6.1-1.248l-.796-.372-.908 5.328c1.556.648 4.36 1.204 7.256 1.252 6.804 0 11.252-3.204 11.304-8.128.056-2.716-1.704-4.768-5.408-6.464-2.252-1.1-3.648-1.836-3.648-2.952 0-.988 1.196-2.044 3.696-2.044 2.156-.032 3.656.432 4.852.916l.6.268.908-5.148-.156.036zm16.608-.572h-5c-1.556 0-2.728.428-3.408 1.972L60.74 38.928h6.804l1.36-3.572 8.304.008c.196.836.796 3.564.796 3.564h6l-5.24-23.756zm-42.568-.2h6.484L38.624 38.74h-6.476l4.048-23.776v.008zm-16.46 13.1.672 3.3 6.336-16.2h6.868L23.408 38.896h-6.852l-5.6-20.088c-.12-.348-.26-.58-.596-.796a27.793 27.793 0 0 0-6.368-2.356l.088-.5h10.436c1.416.056 2.556.5 2.936 2.012l2.28 10.916v-.012h.004zm51.028 2.424 2.584-6.648c-.032.072.532-1.372.86-2.264l.444 2.052 1.5 6.856H70.76v.004h.004z" fill="#000"/>
    <g clip-path="url(#a)">
        <path d="M123.458 57.261v-3.809c0-1.46-.889-2.412-2.412-2.412-.762 0-1.587.254-2.159 1.08-.444-.7-1.079-1.08-2.031-1.08-.635 0-1.27.19-1.778.889v-.762h-1.333v6.094h1.333v-3.364c0-1.08.572-1.587 1.46-1.587.889 0 1.333.571 1.333 1.587v3.364h1.334v-3.364c0-1.08.634-1.587 1.46-1.587.888 0 1.333.571 1.333 1.587v3.364h1.46zm19.743-6.094h-2.158v-1.841h-1.334v1.841h-1.206v1.206h1.206v2.793c0 1.397.572 2.222 2.095 2.222.572 0 1.206-.19 1.651-.444l-.381-1.143c-.381.254-.825.318-1.143.318-.635 0-.888-.381-.888-1.016v-2.73h2.158v-1.206zm11.3-.127c-.762 0-1.27.38-1.587.889v-.762h-1.333v6.094h1.333v-3.428c0-1.015.444-1.587 1.269-1.587.254 0 .572.064.826.127l.381-1.27c-.254-.063-.635-.063-.889-.063zm-17.077.635c-.635-.445-1.524-.635-2.476-.635-1.523 0-2.539.762-2.539 1.968 0 1.016.762 1.587 2.095 1.777l.635.064c.698.127 1.079.317 1.079.635 0 .444-.508.762-1.397.762a3.501 3.501 0 0 1-2.031-.635l-.635 1.015c.698.508 1.651.762 2.603.762 1.777 0 2.793-.825 2.793-1.968 0-1.079-.825-1.65-2.095-1.84l-.635-.064c-.571-.064-1.015-.19-1.015-.572 0-.444.444-.698 1.142-.698.762 0 1.524.318 1.905.508l.571-1.08zm35.423-.635c-.762 0-1.269.38-1.587.889v-.762h-1.333v6.094h1.333v-3.428c0-1.015.445-1.587 1.27-1.587.254 0 .571.064.825.127l.381-1.27c-.254-.063-.635-.063-.889-.063zm-17.013 3.174c0 1.841 1.27 3.174 3.238 3.174.888 0 1.523-.19 2.158-.698l-.635-1.08c-.508.382-1.016.572-1.587.572-1.079 0-1.841-.762-1.841-1.968 0-1.143.762-1.904 1.841-1.968.571 0 1.079.19 1.587.572l.635-1.08c-.635-.508-1.27-.698-2.158-.698-1.968 0-3.238 1.333-3.238 3.174zm12.315 0v-3.047h-1.333v.762c-.444-.572-1.079-.889-1.904-.889-1.714 0-3.047 1.333-3.047 3.174s1.333 3.174 3.047 3.174c.889 0 1.523-.317 1.904-.889v.762h1.333v-3.047zm-4.888 0c0-1.08.699-1.968 1.841-1.968 1.08 0 1.841.825 1.841 1.968 0 1.08-.761 1.968-1.841 1.968-1.142-.063-1.841-.889-1.841-1.968zm-15.934-3.174c-1.777 0-3.047 1.27-3.047 3.174 0 1.905 1.27 3.174 3.111 3.174.889 0 1.777-.254 2.476-.825l-.635-.952c-.508.38-1.143.635-1.778.635-.825 0-1.65-.381-1.841-1.46h4.508v-.508c.063-1.968-1.08-3.238-2.794-3.238zm0 1.143c.826 0 1.397.508 1.524 1.46h-3.174c.127-.825.698-1.46 1.65-1.46zm33.075 2.031v-5.46h-1.334v3.175c-.444-.572-1.079-.889-1.904-.889-1.714 0-3.047 1.333-3.047 3.174s1.333 3.174 3.047 3.174c.889 0 1.524-.317 1.904-.889v.762h1.334v-3.047zm-4.889 0c0-1.08.699-1.968 1.841-1.968 1.08 0 1.841.825 1.841 1.968 0 1.08-.761 1.968-1.841 1.968-1.142-.063-1.841-.889-1.841-1.968zm-44.564 0v-3.047h-1.333v.762c-.445-.572-1.079-.889-1.905-.889-1.714 0-3.047 1.333-3.047 3.174s1.333 3.174 3.047 3.174c.889 0 1.524-.317 1.905-.889v.762h1.333v-3.047zm-4.952 0c0-1.08.699-1.968 1.841-1.968 1.079 0 1.841.825 1.841 1.968 0 1.08-.762 1.968-1.841 1.968-1.142-.063-1.841-.889-1.841-1.968z" fill="#000"/>
        <path d="M156.977 4.888H136.98V40.82h19.997V4.89z" fill="#FF5F00"/>
        <path d="M138.25 22.854c0-7.3 3.428-13.776 8.697-17.966A22.716 22.716 0 0 0 132.854 0C120.221 0 110 10.22 110 22.854c0 12.633 10.221 22.853 22.854 22.853 5.332 0 10.22-1.84 14.093-4.888-5.269-4.126-8.697-10.665-8.697-17.965z" fill="#EB001B"/>
        <path d="M183.957 22.854c0 12.633-10.221 22.853-22.854 22.853a22.716 22.716 0 0 1-14.093-4.888c5.333-4.19 8.697-10.665 8.697-17.965 0-7.3-3.428-13.776-8.697-17.966A22.716 22.716 0 0 1 161.103 0c12.633 0 22.854 10.284 22.854 22.854z" fill="#F79E1B"/>
    </g>
    <defs>
        <clipPath id="a">
            <path fill="#fff" transform="translate(110)" d="M0 0h73.957v57.388H0z"/>
        </clipPath>
    </defs>
</svg>
