<?xml version="1.0" encoding="utf-8"?>
<!-- Generator: Adobe Illustrator 16.0.0, SVG Export Plug-In . SVG Version: 6.00 Build 0)  -->
<!DOCTYPE svg PUBLIC "-//W3C//DTD SVG 1.1//EN" "http://www.w3.org/Graphics/SVG/1.1/DTD/svg11.dtd">
<svg version="1.1" id="Layer_1" xmlns="http://www.w3.org/2000/svg" xmlns:xlink="http://www.w3.org/1999/xlink" x="0px" y="0px"
	 width="85.128px" height="25.641px" viewBox="0 0 85.128 25.641" enable-background="new 0 0 85.128 25.641" xml:space="preserve">
<g>
	<g>
		<path fill-rule="evenodd" clip-rule="evenodd" fill="#232C65" d="M20.394,4.76c3.158,0,6.316,0,9.474,0
			c0.54,0,0.893,0.222,1.037,0.661c0.04,0.121,0.055,0.254,0.056,0.381c0.004,1.221,0.005,2.442,0,3.663
			c-0.001,0.452-0.187,0.811-0.614,0.999c-0.394,0.173-0.762,0.101-1.078-0.189c-0.231-0.213-0.3-0.496-0.301-0.798
			c-0.002-0.744,0-1.487,0-2.23c0-0.372-0.159-0.531-0.538-0.531c-2.046-0.001-4.092-0.001-6.138-0.001c-3.294,0-6.589,0-9.883,0
			c-0.536,0-0.67,0.137-0.67,0.682c0,0.73,0.008,1.459-0.003,2.189c-0.012,0.756-0.752,1.197-1.419,0.849
			c-0.313-0.163-0.5-0.435-0.502-0.787C9.802,8.323,9.801,7,9.812,5.677c0.004-0.527,0.413-0.889,0.985-0.917
			c0.075-0.004,0.15-0.001,0.225-0.001C14.146,4.76,17.271,4.76,20.394,4.76z"/>
		<path fill-rule="evenodd" clip-rule="evenodd" fill="#232C65" d="M20.368,22.085c-3.144,0-6.288,0-9.431,0.001
			c-0.3,0-0.582-0.042-0.815-0.258c-0.201-0.187-0.312-0.415-0.313-0.686c-0.004-1.296-0.007-2.591,0-3.887
			c0.003-0.551,0.424-0.958,0.96-0.96c0.543-0.004,0.958,0.395,0.965,0.951c0.011,0.763,0.003,1.526,0.004,2.291
			c0.001,0.432,0.175,0.604,0.61,0.604c5.353,0,10.706,0,16.06,0c0.456,0,0.614-0.158,0.615-0.617c0.001-0.742,0.004-1.486,0-2.229
			c-0.005-0.768,0.689-1.13,1.266-0.955c0.407,0.124,0.671,0.487,0.672,0.968c0.003,1.146,0.001,2.291,0.001,3.437
			c0,0.144,0.004,0.286-0.004,0.429c-0.028,0.477-0.381,0.846-0.853,0.896c-0.115,0.013-0.231,0.017-0.347,0.017
			C26.628,22.085,23.498,22.085,20.368,22.085z"/>
		<path fill-rule="evenodd" clip-rule="evenodd" fill="#232C65" d="M35.35,12.408c-0.43-0.451-0.858-0.908-1.295-1.357
			c-0.304-0.313-0.621-0.614-0.931-0.92c-0.345-0.341-0.384-0.812-0.101-1.203c0.251-0.348,0.779-0.463,1.177-0.249
			c0.106,0.058,0.211,0.128,0.297,0.212c1.258,1.24,2.514,2.482,3.768,3.726c0.414,0.41,0.441,1.075,0.034,1.484
			c-1.13,1.137-2.274,2.259-3.412,3.387c-0.146,0.145-0.287,0.292-0.438,0.43c-0.538,0.49-1.39,0.289-1.576-0.375
			c-0.107-0.378,0.024-0.694,0.294-0.963c0.676-0.675,1.351-1.35,2.027-2.023c0.051-0.053,0.1-0.106,0.191-0.205
			c-0.132,0-0.216,0-0.299,0c-2.291,0-4.582-0.002-6.873,0.002c-0.395,0-0.748-0.078-0.975-0.438
			c-0.198-0.313-0.212-0.643-0.052-0.974c0.168-0.343,0.461-0.519,0.835-0.53c0.49-0.014,0.982-0.004,1.473-0.004
			c1.889,0,3.778,0,5.667,0C35.234,12.408,35.308,12.408,35.35,12.408z"/>
		<path fill-rule="evenodd" clip-rule="evenodd" fill="#232C65" d="M5.357,12.494c0.075,0,0.149,0,0.224,0
			c2.339,0,4.679-0.001,7.018,0c0.598,0,0.958,0.309,1.04,0.879c0.072,0.502-0.327,1.003-0.834,1.046
			c-0.116,0.01-0.232,0.013-0.347,0.013c-2.265,0-4.529,0-6.793,0c-0.087,0-0.173,0-0.318,0c0.084,0.092,0.129,0.145,0.178,0.193
			c0.675,0.676,1.352,1.35,2.024,2.027c0.352,0.355,0.432,0.695,0.268,1.069C7.578,18.262,6.879,18.45,6.4,18.101
			c-0.071-0.053-0.136-0.114-0.199-0.176c-1.255-1.234-2.509-2.469-3.763-3.703C2.02,13.81,1.996,13.218,2.415,12.8
			c1.283-1.283,2.574-2.557,3.868-3.829C6.59,8.668,7.004,8.616,7.378,8.798c0.359,0.176,0.535,0.479,0.508,0.876
			c-0.018,0.269-0.162,0.471-0.347,0.65c-0.682,0.659-1.363,1.318-2.046,1.976c-0.053,0.05-0.118,0.088-0.177,0.132
			C5.33,12.453,5.343,12.474,5.357,12.494z"/>
		<path fill-rule="evenodd" clip-rule="evenodd" fill="#232C65" d="M19.939,9.679c0-0.137-0.005-0.314,0.001-0.49
			c0.013-0.313,0.246-0.548,0.523-0.539c0.313,0.011,0.52,0.23,0.523,0.559c0.002,0.184,0,0.367,0,0.535
			c0.388,0.124,0.767,0.228,1.132,0.365c0.341,0.129,0.637,0.333,0.873,0.621c0.212,0.259,0.211,0.532-0.021,0.764
			c-0.203,0.202-0.558,0.207-0.775-0.009c-0.3-0.297-0.656-0.485-1.065-0.569c-0.46-0.095-0.92-0.117-1.366,0.074
			c-0.466,0.199-0.668,0.766-0.371,1.103c0.138,0.157,0.339,0.28,0.536,0.357c0.633,0.247,1.283,0.452,1.917,0.7
			c0.465,0.182,0.854,0.48,1.118,0.917c0.508,0.842,0.357,2.287-0.888,2.799c-0.292,0.121-0.613,0.172-0.921,0.252
			c-0.064,0.018-0.131,0.026-0.209,0.042c0,0.202,0.005,0.392-0.001,0.583c-0.008,0.285-0.219,0.48-0.52,0.49
			c-0.284,0.01-0.483-0.156-0.514-0.441c-0.016-0.148-0.019-0.3-0.01-0.449c0.01-0.15-0.04-0.209-0.197-0.235
			c-0.735-0.124-1.396-0.409-1.915-0.966c-0.083-0.088-0.162-0.187-0.221-0.293c-0.13-0.232-0.08-0.531,0.103-0.693
			c0.228-0.205,0.504-0.233,0.747-0.057c0.154,0.111,0.285,0.254,0.434,0.372c0.748,0.599,1.592,0.706,2.487,0.442
			c0.338-0.1,0.576-0.34,0.618-0.715c0.043-0.381-0.117-0.684-0.45-0.844c-0.415-0.199-0.851-0.359-1.286-0.514
			c-0.552-0.195-1.109-0.37-1.6-0.708c-1.074-0.74-0.977-2.47,0.189-3.051C19.151,9.911,19.533,9.821,19.939,9.679z"/>
	</g>
</g>
<path fill="#232C65" d="M49.304,4.874l0.556,5.064l2.285-5.064h1.513L50.2,12.171h-1.431l-0.565-5.198l-2.635,5.198h-1.493
	l-0.483-7.298h1.42l0.278,5.044l2.541-5.044H49.304z"/>
<path fill="#232C65" d="M53.194,12.171l1.08-5.064h1.358l-1.08,5.064H53.194z M55.375,4.585c0.452,0,0.762,0.329,0.762,0.742
	c0,0.534-0.453,0.915-0.938,0.915c-0.432,0-0.75-0.319-0.75-0.741C54.45,4.997,54.871,4.585,55.375,4.585z"/>
<path fill="#232C65" d="M59.389,8.425c-0.607,0-1.225,0.309-1.461,1.41l-0.506,2.336h-1.357l0.885-4.199
	c0.104-0.474,0.113-0.792,0.113-0.865h1.328c0,0.093-0.011,0.422-0.063,0.628c0.268-0.381,0.689-0.659,1.409-0.659
	c0.175,0,0.319,0.021,0.433,0.041l-0.287,1.378C59.718,8.456,59.553,8.425,59.389,8.425z"/>
<path fill="#232C65" d="M61.529,10.01c0,0.659,0.392,1.174,1.132,1.174c0.557,0,0.947-0.31,1.133-0.659l1.05,0.524
	c-0.329,0.659-1.081,1.277-2.265,1.277c-1.266,0-2.326-0.906-2.326-2.337c0-1.874,1.358-3.036,2.717-3.036
	c1.41,0,2.225,0.895,2.225,2.13c0,0.299-0.063,0.649-0.145,0.917L61.529,10.01z M63.897,9.063c0.01-0.072,0.01-0.103,0.01-0.124
	c0-0.38-0.246-0.875-0.957-0.875c-0.69,0-1.111,0.453-1.277,0.999H63.897z"/>
<path fill="#232C65" d="M47.029,15.923l-1.255,5.949h-1.42l1.256-5.949h-2.213l0.287-1.35h5.754l-0.289,1.35H47.029z"/>
<path fill="#232C65" d="M51.785,18.125c-0.606,0-1.225,0.309-1.462,1.409l-0.504,2.338h-1.359l0.885-4.199
	c0.104-0.475,0.113-0.793,0.113-0.865h1.328c0,0.092-0.01,0.422-0.062,0.628c0.268-0.382,0.69-0.659,1.409-0.659
	c0.176,0,0.32,0.021,0.434,0.041l-0.288,1.38C52.113,18.156,51.95,18.125,51.785,18.125z"/>
<path fill="#232C65" d="M58.175,16.808l-0.835,3.953c-0.061,0.297-0.092,0.627-0.092,0.915c0,0.041,0,0.103,0.011,0.196h-1.267
	c-0.01-0.083-0.01-0.165-0.01-0.237c0-0.103,0.01-0.258,0.02-0.38c-0.236,0.35-0.678,0.709-1.357,0.709
	c-1.246,0-1.977-1.008-1.977-2.254c0-1.719,1.122-3.026,2.583-3.026c0.937,0,1.339,0.433,1.472,0.7l0.124-0.576H58.175z
	 M54.028,19.66c0,0.699,0.38,1.121,0.987,1.121c0.7,0,1.317-0.669,1.317-1.791c0-0.668-0.36-1.081-0.968-1.081
	C54.49,17.909,54.028,18.835,54.028,19.66z"/>
<path fill="#232C65" d="M61.735,21.873l0.628-2.934c0.021-0.104,0.031-0.207,0.031-0.299c0-0.453-0.267-0.752-0.771-0.752
	c-0.588,0-0.947,0.484-1.071,1.051l-0.639,2.934h-1.357l0.885-4.199c0.104-0.475,0.104-0.793,0.104-0.865h1.327
	c0,0.082,0,0.309-0.03,0.515c0.328-0.464,0.895-0.648,1.42-0.648c1.01,0,1.564,0.68,1.564,1.595c0,0.176-0.021,0.35-0.063,0.536
	l-0.658,3.067H61.735z"/>
<path fill="#232C65" d="M65.542,20.112c-0.01,0.04-0.01,0.072-0.01,0.093c0,0.432,0.308,0.793,0.802,0.793
	c0.432,0,0.629-0.247,0.629-0.505c0-0.186-0.083-0.36-0.381-0.494l-0.566-0.247c-0.771-0.329-1.08-0.803-1.08-1.421
	c0-0.895,0.771-1.677,1.934-1.677c1.504,0,1.863,0.977,1.885,1.555l-1.184,0.185c0-0.319-0.166-0.72-0.742-0.72
	c-0.359,0-0.607,0.226-0.607,0.504c0,0.216,0.124,0.35,0.32,0.432l0.648,0.278c0.782,0.339,1.121,0.864,1.121,1.481
	c0,0.772-0.639,1.658-1.955,1.658c-1.688,0-1.977-1.153-1.977-1.709L65.542,20.112z"/>
<path fill="#232C65" d="M71.563,17.971l-0.823,3.901h-1.38l0.824-3.901h-0.854l0.246-1.163h0.863l0.176-0.824
	c0.269-1.234,1.092-1.636,1.977-1.636c0.36,0,0.699,0.093,0.834,0.175l-0.237,1.123c0,0.01-0.165-0.094-0.463-0.094
	c-0.411,0-0.7,0.227-0.804,0.699l-0.112,0.557h1.07l-0.247,1.163H71.563z"/>
<path fill="#232C65" d="M74.155,19.71c0,0.658,0.393,1.174,1.134,1.174c0.556,0,0.946-0.31,1.132-0.659l1.049,0.525
	c-0.328,0.658-1.08,1.276-2.264,1.276c-1.266,0-2.326-0.906-2.326-2.337c0-1.874,1.358-3.036,2.717-3.036
	c1.41,0,2.223,0.895,2.223,2.131c0,0.298-0.061,0.647-0.144,0.916L74.155,19.71z M76.523,18.764
	c0.011-0.073,0.011-0.104,0.011-0.124c0-0.381-0.248-0.875-0.957-0.875c-0.69,0-1.112,0.453-1.277,0.999H76.523z"/>
<path fill="#232C65" d="M81.668,18.125c-0.607,0-1.226,0.309-1.461,1.409l-0.505,2.338h-1.359l0.885-4.199
	c0.103-0.475,0.114-0.793,0.114-0.865h1.328c0,0.092-0.012,0.422-0.063,0.628c0.268-0.382,0.689-0.659,1.41-0.659
	c0.174,0,0.318,0.021,0.432,0.041l-0.287,1.38C81.998,18.156,81.833,18.125,81.668,18.125z"/>
</svg>
