<svg width="161" height="65" fill="none" xmlns="http://www.w3.org/2000/svg">
    <path fill-rule="evenodd" clip-rule="evenodd" d="M25.96 11.353c1.753 1.296 3.245 2.792 4.598 4.397a3.654 3.654 0 0 1 .354 4.208l-.16.265c-1.243 2.087-2.723 4.027-4.514 5.764a21.948 21.948 0 0 1-2.95 2.436 33.31 33.31 0 0 1-1.707 1.069 15.85 15.85 0 0 1-1.95.909 15.071 15.071 0 0 1 .016-2.157c.068-.68.154-1.345.26-2.003.231-1.296.563-2.527.989-3.699.03-.089.064-.174.099-.26l.044-.11c-.416.051-.847.108-1.316.175-.245.053-.501.1-.766.148-.526.097-1.083.2-1.637.361-.858.195-1.734.468-2.624.793-.583.173-1.129.424-1.688.68-.335.155-.675.31-1.03.454-.294.182-.603.352-.915.524-.575.317-1.16.64-1.672 1.048l-.004.003c-.827.6-1.66 1.205-2.345 1.954-.13.136-.27.268-.408.4a7.6 7.6 0 0 0-.66.682c-.299.398-.601.798-.895 1.185-.527.61-.89 1.297-1.244 1.965-.084.16-.168.318-.253.474-.485.795-.779 1.623-1.033 2.4-.087.285-.188.56-.286.827-.17.46-.33.896-.393 1.316l-.082.427c-.093.488-.175.92-.244 1.294-.178.966-.284 1.52-.284 1.52s-.008-.56-.037-1.542l-.027-.872-.027-.92c-.028-.45.036-.924.105-1.434a17.8 17.8 0 0 0 .105-.895c.089-.866.205-1.805.531-2.763.046-.16.09-.323.136-.488.227-.828.467-1.702.905-2.524l.052-.114c.216-.473.436-.956.666-1.442.166-.331.373-.643.582-.958.117-.175.234-.352.345-.533.612-1.039 1.405-1.954 2.217-2.868.528-.642 1.138-1.182 1.75-1.722.297-.263.596-.527.885-.803.322-.229.64-.47.956-.71.634-.48 1.264-.96 1.924-1.333a28.449 28.449 0 0 1 2.88-1.624c.646-.35 1.287-.62 1.9-.88.274-.115.542-.229.802-.345a43.439 43.439 0 0 1 3.42-1.186c-.4-.985-.742-2.01-.995-3.104-.267-1.125-.494-2.275-.515-3.582 1.254.351 2.303.863 3.328 1.393a21.186 21.186 0 0 1 2.812 1.8zm10.022 10.342s.043.548.094 1.512l.002.052c.027.48.058 1.055.102 1.71.04.459-.013.947-.068 1.472-.029.266-.058.541-.077.827-.058.852-.155 1.781-.444 2.73-.042.16-.082.325-.123.492-.202.817-.416 1.682-.825 2.5a163.126 163.126 0 0 1-.664 1.553c-.16.334-.356.65-.555.969-.108.173-.217.348-.32.527-.579 1.041-1.334 1.96-2.113 2.884-.509.648-1.103 1.2-1.697 1.753-.285.265-.57.53-.844.806-.319.237-.631.487-.942.735-.614.49-1.223.975-1.862 1.36a26.369 26.369 0 0 1-2.798 1.68c-.645.371-1.287.663-1.899.942-.255.115-.504.229-.747.345a43.961 43.961 0 0 1-3.357 1.265c.428.956.795 1.957 1.081 3.025.287 1.1.55 2.223.616 3.504-1.26-.306-2.316-.78-3.342-1.276a20.23 20.23 0 0 1-2.848-1.685c-1.773-1.222-3.3-2.652-4.692-4.189a3.568 3.568 0 0 1-.476-4.13l.152-.26c1.173-2.091 2.584-4.043 4.309-5.803a21.84 21.84 0 0 1 2.849-2.484 32.6 32.6 0 0 1 1.663-1.1 14.968 14.968 0 0 1 1.909-.95c.067.734.077 1.44.043 2.119-.049.67-.11 1.329-.193 1.978a22.25 22.25 0 0 1-.873 3.67c-.017.05-.036.1-.055.148-.027.072-.054.144-.076.22.407-.062.838-.131 1.3-.214.23-.055.47-.106.718-.158.53-.112 1.09-.23 1.647-.412a20.777 20.777 0 0 0 2.582-.857c.577-.186 1.115-.451 1.665-.722.324-.16.652-.322.996-.471.288-.19.592-.367.9-.546.56-.327 1.13-.66 1.62-1.076.806-.612 1.617-1.238 2.27-1.992.122-.129.249-.255.375-.38.233-.233.465-.464.664-.714a136.926 136.926 0 0 1 .85-1.196c.51-.623.852-1.315 1.185-1.989l.225-.452c.461-.8.726-1.62.948-2.392.079-.282.171-.555.26-.82.156-.458.303-.892.354-1.307l.1-.635c.062-.397.118-.754.17-1.067.163-.956.24-1.502.24-1.502z" fill="#1277C6"/>
    <path d="m49.446 24.671-2.1-20.132h5.206l1.006 12.683 5.81-12.683h4.113l1.38 12.683L70.268 4.54h5.637L66.76 24.67h-5.436l-1.237-11.36-5.206 11.36h-5.435zm29.806-15.56c-.747 0-1.351-.268-1.811-.805-.46-.556-.624-1.208-.49-1.955.116-.729.48-1.362 1.094-1.899.613-.556 1.313-.834 2.099-.834.767 0 1.37.269 1.812.806.46.537.623 1.179.489 1.927-.115.767-.48 1.418-1.093 1.955-.614.537-1.314.806-2.1.806zm-5.176 15.56 2.53-14.38h4.775L78.85 24.67h-4.774zm15.062-11.677c.441-.977 1.093-1.716 1.956-2.214.863-.518 1.83-.777 2.905-.777l-.892 5.292c-1.093-.153-2.138.039-3.135.575-.978.537-1.582 1.486-1.812 2.848l.058-.46-1.122 6.413h-4.774l2.53-14.38h4.775l-.489 2.703zm13.751-3.106c2.167 0 3.863.738 5.091 2.215 1.227 1.457 1.649 3.24 1.265 5.35a7.34 7.34 0 0 1-.489 1.782h-9.865c.269 1.17 1.189 1.755 2.761 1.755 1.151 0 2.1-.345 2.848-1.036l3.048 2.79c-1.668 1.553-3.758 2.33-6.27 2.33-2.492 0-4.371-.758-5.637-2.272-1.246-1.515-1.687-3.384-1.323-5.609.345-2.109 1.323-3.854 2.934-5.234 1.61-1.38 3.489-2.07 5.637-2.07zM99.466 15.9h5.436c-.096-1.323-.853-1.984-2.272-1.984-1.419 0-2.473.661-3.164 1.984zM62.59 36.54l-.891 4.975H56.75l-2.675 15.157h-5.148l2.675-15.157h-4.976l.863-4.975h15.1zm4.344 8.455c.44-.977 1.093-1.716 1.955-2.214.863-.518 1.832-.777 2.905-.777l-.891 5.292c-1.093-.153-2.138.038-3.135.575-.978.537-1.582 1.486-1.812 2.848l.057-.46-1.121 6.413h-4.775l2.531-14.38h4.775l-.49 2.703zm17.23-2.703h4.775l-2.53 14.38h-4.775l.201-1.121c-1.112 1.016-2.512 1.524-4.199 1.524-2.052 0-3.576-.777-4.573-2.33-.978-1.553-1.294-3.374-.949-5.464.326-2.033 1.189-3.768 2.588-5.206 1.4-1.457 3.135-2.186 5.206-2.186 1.84 0 3.164.662 3.97 1.985l.287-1.582zm-6.844 9.462c.44.575 1.112.863 2.013.863.901 0 1.678-.278 2.33-.834.651-.556 1.064-1.294 1.236-2.215v-.086c.154-.94.01-1.697-.431-2.272-.441-.575-1.122-.863-2.042-.863-.901 0-1.678.288-2.33.863-.652.575-1.054 1.332-1.208 2.272-.153.94-.01 1.697.432 2.272zm23.82-9.865c1.553 0 2.742.547 3.567 1.64.843 1.073 1.102 2.588.776 4.544l-1.524 8.6h-4.775l1.41-7.996c.115-.767.009-1.333-.317-1.697-.325-.384-.814-.575-1.466-.575-.729 0-1.343.22-1.841.661-.48.441-.796 1.093-.95 1.956v-.029l-1.35 7.68h-4.775l2.53-14.381H97.2l-.259 1.467c1.093-1.247 2.493-1.87 4.199-1.87zm12.026 15.186c-3.183 0-5.292-1.18-6.328-3.538l4.2-2.042c.421 1.093 1.217 1.64 2.387 1.64.843 0 1.303-.23 1.38-.69.058-.288-.153-.528-.633-.72a11.77 11.77 0 0 0-1.725-.604 13.14 13.14 0 0 1-1.985-.747c-.652-.326-1.169-.834-1.553-1.525-.364-.71-.46-1.582-.287-2.617.249-1.438.977-2.521 2.185-3.25 1.208-.729 2.541-1.093 3.998-1.093 1.323 0 2.483.278 3.48.834a4.814 4.814 0 0 1 2.215 2.359l-4.055 1.955c-.346-.863-.94-1.303-1.784-1.323-.728-.038-1.15.22-1.265.777-.058.307.077.566.403.776.326.192.747.336 1.265.432a9.376 9.376 0 0 1 1.668.489 7.84 7.84 0 0 1 1.611.776c.498.307.863.796 1.093 1.467.249.652.297 1.438.143 2.358-.268 1.477-.997 2.56-2.185 3.25-1.189.69-2.598 1.036-4.228 1.036zm19.065-16.538c-1.611-.115-2.541.47-2.79 1.755h2.474l-.806 4.573h-2.473l-1.726 9.807h-4.774l1.726-9.807h-1.784l.777-4.573h1.812c.383-2.128 1.275-3.72 2.675-4.774 1.399-1.074 3.288-1.544 5.666-1.41l-.777 4.43zm8.177 1.352c2.167 0 3.864.738 5.091 2.215 1.227 1.457 1.649 3.24 1.265 5.35a7.34 7.34 0 0 1-.489 1.782h-9.865c.269 1.17 1.189 1.755 2.761 1.755 1.151 0 2.1-.345 2.848-1.036l3.048 2.79c-1.668 1.553-3.758 2.33-6.27 2.33-2.492 0-4.371-.758-5.637-2.272-1.246-1.515-1.687-3.385-1.323-5.609.345-2.109 1.323-3.854 2.934-5.234 1.611-1.38 3.49-2.07 5.637-2.07zm-3.423 6.011h5.436c-.096-1.323-.853-1.984-2.272-1.984-1.419 0-2.473.661-3.164 1.984zm18.017-2.905c.441-.977 1.093-1.716 1.956-2.214.863-.518 1.831-.777 2.905-.777l-.892 5.292c-1.093-.153-2.138.038-3.135.575-.978.537-1.582 1.486-1.812 2.848l.058-.46-1.122 6.413h-4.774l2.531-14.38h4.774l-.489 2.703z" fill="#0B498F"/>
</svg>
